PathFileType  4	(X/Y/Z) C:\Users\wagnerel85475\Documents\Thesis\opencap-core\Data\3375ffbc-daeb-4a43-b4f7-ac9899cd4c71\MarkerData\PreAugmentation
DataRate	CameraRate	NumFrames	NumMarkers	Units	OrigDataRate	OrigDataStartFrame	OrigNumFrames
60.0	60.0	13	20	m	60.0	488	780
Frame#	Time	Neck			RShoulder			RElbow			RWrist			LShoulder			LElbow			LWrist			midHip			RHip			RKnee			RAnkle			LHip			LKnee			LAnkle			LBigToe			LSmallToe			LHeel			RBigToe			RSmallToe			RHeel			
		X1	Y1	Z1	X2	Y2	Z2	X3	Y3	Z3	X4	Y4	Z4	X5	Y5	Z5	X6	Y6	Z6	X7	Y7	Z7	X8	Y8	Z8	X9	Y9	Z9	X10	Y10	Z10	X11	Y11	Z11	X12	Y12	Z12	X13	Y13	Z13	X14	Y14	Z14	X15	Y15	Z15	X16	Y16	Z16	X17	Y17	Z17	X18	Y18	Z18	X19	Y19	Z19	X20	Y20	Z20	

488	8.1166667	-0.4077400	1.3008300	-0.1310400	-0.4509800	1.3219600	0.0629200	-0.5141800	1.0131600	0.1359000	-0.5221600	0.7365600	0.1795800	-0.4208900	1.2952200	-0.3118100	-0.4600200	1.0141500	-0.3869900	-0.3755300	0.7512500	-0.3562900	-0.4449700	0.7707600	-0.1044900	-0.4476200	0.7867400	0.0116300	-0.2922900	0.3450800	-0.0102300	-0.3322600	-0.1808600	0.0347400	-0.4489400	0.7599500	-0.2202200	-0.6187100	0.2778500	-0.1954400	-0.8545600	-0.1880400	-0.1935700	-0.6128500	-0.2448800	-0.2392900	-0.6645100	-0.2472100	-0.2857000	-0.8892000	-0.2309600	-0.1952400	-0.1400000	-0.2289000	0.0397800	-0.1472400	-0.2193900	0.0978200	-0.3629500	-0.2221800	0.0229000
489	8.1333333	-0.3980300	1.3022200	-0.1283100	-0.4353300	1.3188700	0.0688200	-0.4872000	1.0137500	0.1421300	-0.5229500	0.7362600	0.1830800	-0.4022900	1.2979000	-0.3029600	-0.4352200	1.0169200	-0.3776200	-0.3764400	0.7512900	-0.3563800	-0.4325500	0.7747900	-0.1045500	-0.4178300	0.7885300	0.0196000	-0.2735000	0.3449400	-0.0075400	-0.3260100	-0.1809700	0.0336600	-0.4195000	0.7666300	-0.2116200	-0.6089100	0.2806700	-0.1960300	-0.8506500	-0.1840100	-0.1950300	-0.6353700	-0.2477100	-0.2336100	-0.6736500	-0.2497700	-0.2844200	-0.8884300	-0.2279500	-0.1952500	-0.1393300	-0.2328500	0.0437500	-0.1419500	-0.2198900	0.0994800	-0.3589000	-0.2224900	0.0232800
490	8.1500000	-0.3878500	1.3043900	-0.1245900	-0.4057900	1.3178400	0.0773700	-0.4752100	1.0143700	0.1447700	-0.5264300	0.7366900	0.1851700	-0.3907900	1.3021400	-0.2952100	-0.4167800	1.0206200	-0.3686200	-0.3762500	0.7509800	-0.3570100	-0.4180200	0.7777100	-0.1038400	-0.3938200	0.7899900	0.0260800	-0.2679100	0.3458400	-0.0054300	-0.3258400	-0.1806900	0.0331700	-0.3970500	0.7713000	-0.2071500	-0.6017400	0.2830200	-0.1963900	-0.8480500	-0.1827900	-0.1962700	-0.6428700	-0.2485900	-0.2267400	-0.6768100	-0.2509700	-0.2822100	-0.8961700	-0.2303000	-0.1972100	-0.1320600	-0.2354500	0.0475500	-0.1419400	-0.2233000	0.1003900	-0.3617700	-0.2227300	0.0227500
491	8.1666667	-0.3706800	1.3073900	-0.1169800	-0.3745700	1.3189100	0.0874900	-0.4718500	1.0137000	0.1462500	-0.5273300	0.7363500	0.1861600	-0.3843700	1.3074300	-0.2903000	-0.4105500	1.0250800	-0.3620300	-0.3716600	0.7506100	-0.3581800	-0.4002500	0.7796000	-0.1013100	-0.3801700	0.7909900	0.0297700	-0.2683600	0.3443100	-0.0022300	-0.3262800	-0.1812000	0.0332400	-0.3847700	0.7736100	-0.2068500	-0.5940800	0.2839700	-0.1942700	-0.8452200	-0.1799300	-0.1980100	-0.6396500	-0.2489500	-0.2227600	-0.6743300	-0.2502000	-0.2811000	-0.9059000	-0.2314300	-0.2009600	-0.1256700	-0.2396700	0.0502500	-0.1459300	-0.2284400	0.1018300	-0.3657600	-0.2224700	0.0218800
492	8.1833333	-0.3465100	1.3122800	-0.1063500	-0.3544900	1.3206900	0.0959000	-0.4699100	1.0133600	0.1493500	-0.5140400	0.7356000	0.1880800	-0.3781200	1.3130800	-0.2875100	-0.4135000	1.0294200	-0.3570300	-0.3612800	0.7505200	-0.3585400	-0.3816700	0.7803600	-0.0968600	-0.3731900	0.7917900	0.0316100	-0.2697600	0.3401400	0.0019100	-0.3247700	-0.1832600	0.0335500	-0.3790300	0.7735300	-0.2074500	-0.5742600	0.2846100	-0.1877400	-0.8335100	-0.1697300	-0.2022700	-0.6368400	-0.2492700	-0.2243900	-0.6706800	-0.2473100	-0.2841000	-0.9083400	-0.2215600	-0.2044900	-0.1274900	-0.2474100	0.0519900	-0.1513300	-0.2334300	0.1040200	-0.3670600	-0.2219000	0.0215200
493	8.2000000	-0.3242200	1.3184400	-0.0974200	-0.3476800	1.3243400	0.1001000	-0.4600200	1.0128300	0.1553900	-0.4819600	0.7351500	0.1934900	-0.3669500	1.3191600	-0.2840300	-0.4206700	1.0329900	-0.3515600	-0.3472000	0.7512300	-0.3564100	-0.3642300	0.7810000	-0.0905100	-0.3679300	0.7924000	0.0329300	-0.2712300	0.3354600	0.0050300	-0.3229900	-0.1863300	0.0339500	-0.3748500	0.7732400	-0.2066700	-0.5373600	0.2895700	-0.1787900	-0.8116600	-0.1530100	-0.2091500	-0.6374100	-0.2494000	-0.2291200	-0.6688400	-0.2428800	-0.2894500	-0.9041700	-0.2048200	-0.2055300	-0.1316100	-0.2550900	0.0537900	-0.1549400	-0.2370800	0.1057700	-0.3665000	-0.2220800	0.0216400
494	8.2166667	-0.3106300	1.3254600	-0.0921200	-0.3471200	1.3307800	0.1009700	-0.4340900	1.0125400	0.1639600	-0.4417600	0.7339900	0.2010600	-0.3478100	1.3254000	-0.2778400	-0.4250300	1.0368200	-0.3439200	-0.3321700	0.7519800	-0.3519800	-0.3453900	0.7830700	-0.0831700	-0.3606700	0.7925900	0.0347200	-0.2729000	0.3315800	0.0063200	-0.3221200	-0.1890700	0.0343100	-0.3669800	0.7740500	-0.2039900	-0.4892700	0.2995600	-0.1736300	-0.7895300	-0.1361100	-0.2161300	-0.6412500	-0.2503700	-0.2333500	-0.6708100	-0.2392700	-0.2933900	-0.8986000	-0.1873500	-0.2039600	-0.1297900	-0.2586600	0.0568800	-0.1559500	-0.2395500	0.1065300	-0.3646900	-0.2241100	0.0221500
495	8.2333333	-0.3046500	1.3336200	-0.0881700	-0.3399300	1.3376700	0.1025400	-0.3994700	1.0138900	0.1726100	-0.4091900	0.7319100	0.2061300	-0.3228600	1.3323800	-0.2694500	-0.4185000	1.0417100	-0.3334400	-0.3174100	0.7538300	-0.3466600	-0.3266200	0.7863400	-0.0769500	-0.3467600	0.7926800	0.0383200	-0.2721300	0.3290800	0.0065100	-0.3219100	-0.1913200	0.0346200	-0.3490300	0.7749900	-0.1982900	-0.4385100	0.3101800	-0.1767500	-0.7741900	-0.1235300	-0.2203400	-0.6486600	-0.2526400	-0.2352300	-0.6753100	-0.2378500	-0.2941200	-0.8896000	-0.1725600	-0.2009500	-0.1245500	-0.2593300	0.0601500	-0.1559800	-0.2414700	0.1068300	-0.3617400	-0.2264400	0.0231800
496	8.2500000	-0.3019200	1.3399300	-0.0840600	-0.3152000	1.3406700	0.1084800	-0.3730800	1.0156000	0.1784500	-0.3899400	0.7306700	0.2066100	-0.2996500	1.3384100	-0.2615400	-0.4018900	1.0465300	-0.3216400	-0.3028700	0.7571200	-0.3413300	-0.3132900	0.7887500	-0.0731700	-0.3230800	0.7931300	0.0446200	-0.2683100	0.3274800	0.0073700	-0.3219400	-0.1932200	0.0348900	-0.3200000	0.7761800	-0.1892000	-0.3915100	0.3165100	-0.1843800	-0.7631800	-0.1137100	-0.2216100	-0.6541700	-0.2546400	-0.2333800	-0.6775000	-0.2374100	-0.2910200	-0.8757700	-0.1594800	-0.1981100	-0.1238800	-0.2599900	0.0612400	-0.1562700	-0.2425800	0.1070400	-0.3592200	-0.2269600	0.0244500
497	8.2666667	-0.2973300	1.3421000	-0.0794800	-0.2791200	1.3391700	0.1181800	-0.3597100	1.0154800	0.1811800	-0.3751300	0.7313100	0.2045500	-0.2843400	1.3419500	-0.2563000	-0.3831600	1.0497400	-0.3119600	-0.2895000	0.7612600	-0.3365300	-0.3054600	0.7893000	-0.0710800	-0.2945600	0.7945200	0.0522600	-0.2679100	0.3257100	0.0107600	-0.3220200	-0.1935900	0.0350400	-0.2899700	0.7788000	-0.1796800	-0.3503100	0.3183500	-0.1874400	-0.7511200	-0.1049300	-0.2221800	-0.6489900	-0.2534600	-0.2271800	-0.6715800	-0.2368000	-0.2847900	-0.8625100	-0.1464200	-0.1973000	-0.1298100	-0.2611800	0.0598700	-0.1564200	-0.2424600	0.1070000	-0.3574200	-0.2253000	0.0256500
498	8.2833333	-0.2859600	1.3422300	-0.0728800	-0.2510500	1.3372200	0.1276400	-0.3518600	1.0144500	0.1828400	-0.3500400	0.7342600	0.2037100	-0.2751900	1.3447100	-0.2531600	-0.3671300	1.0517500	-0.3063400	-0.2799600	0.7645200	-0.3332000	-0.2985600	0.7887800	-0.0691000	-0.2715300	0.7960100	0.0584100	-0.2733000	0.3237600	0.0159500	-0.3220800	-0.1917300	0.0351100	-0.2709900	0.7817800	-0.1735900	-0.3123400	0.3198000	-0.1824900	-0.7366600	-0.0976900	-0.2231100	-0.6281700	-0.2486900	-0.2183300	-0.6551700	-0.2351000	-0.2780800	-0.8550800	-0.1378300	-0.1986800	-0.1374500	-0.2614000	0.0572400	-0.1551800	-0.2411400	0.1063300	-0.3548400	-0.2231600	0.0267400
499	8.3000000	-0.2668500	1.3439200	-0.0638400	-0.2396000	1.3369800	0.1338800	-0.3438700	1.0138500	0.1854900	-0.3099000	0.7367100	0.2070500	-0.2669900	1.3479500	-0.2503500	-0.3573800	1.0544000	-0.3035200	-0.2761200	0.7657200	-0.3318900	-0.2888500	0.7890700	-0.0660400	-0.2594000	0.7969700	0.0616200	-0.2760400	0.3229800	0.0207000	-0.3222600	-0.1889900	0.0352000	-0.2640700	0.7841700	-0.1713500	-0.2789500	0.3242800	-0.1747900	-0.7164800	-0.0918100	-0.2220400	-0.5958900	-0.2415500	-0.2108600	-0.6322700	-0.2316700	-0.2734100	-0.8482500	-0.1335800	-0.1996200	-0.1412900	-0.2603400	0.0540800	-0.1522100	-0.2397800	0.1051700	-0.3538200	-0.2223900	0.0272100
500	8.3166667	-0.2447700	1.3474200	-0.0550200	-0.2376100	1.3392500	0.1367000	-0.3313400	1.0133200	0.1909400	-0.2688700	0.7380300	0.2135000	-0.2584400	1.3501200	-0.2474300	-0.3564400	1.0571200	-0.3017200	-0.2763100	0.7655600	-0.3318600	-0.2745200	0.7911900	-0.0615300	-0.2547700	0.7974100	0.0628900	-0.2697700	0.3242100	0.0250100	-0.3225000	-0.1873300	0.0353200	-0.2614000	0.7860800	-0.1705300	-0.2545800	0.3293700	-0.1708800	-0.6837100	-0.0848300	-0.2158600	-0.5596600	-0.2336400	-0.2088800	-0.6073800	-0.2270700	-0.2705000	-0.8221400	-0.1277600	-0.1977700	-0.1401700	-0.2589600	0.0512500	-0.1503000	-0.2394300	0.1046000	-0.3575200	-0.2231400	0.0263900
